<svg xmlns="http://www.w3.org/2000/svg" width="18" height="32" viewBox="0 0 18 32" fill="none">
  <path d="M7 2H4C3.20435 2 2.44129 2.31607 1.87868 2.87868C1.31607 3.44129 1 4.20435 1 5V27C1 27.7957 1.31607 28.5587 1.87868 29.1213C2.44129 29.6839 3.20435 30 4 30H14C14.7956 30 15.5587 29.6839 16.1213 29.1213C16.6839 28.5587 17 27.7957 17 27V5C17 4.20435 16.6839 3.44129 16.1213 2.87868C15.5587 2.31607 14.7956 2 14 2H11M7 2V4H11V2M7 2H11M7 27H11" stroke="#676767" stroke-width="2" stroke-linecap="round" stroke-linejoin="round"/>
</svg>