<svg xmlns="http://www.w3.org/2000/svg" width="30" height="30" viewBox="0 0 30 30" fill="none">
  <path d="M21.0775 5.60875L23.1862 3.49875C23.6258 3.05916 24.2221 2.81219 24.8438 2.81219C25.4654 2.81219 26.0617 3.05916 26.5013 3.49875C26.9408 3.93835 27.1878 4.53457 27.1878 5.15625C27.1878 5.77794 26.9408 6.37416 26.5013 6.81375L13.2275 20.0875C12.5667 20.748 11.7517 21.2334 10.8563 21.5L7.5 22.5L8.5 19.1438C8.7666 18.2483 9.25204 17.4333 9.9125 16.7725L21.0775 5.60875ZM21.0775 5.60875L24.375 8.90625M22.5 17.5V23.4375C22.5 24.1834 22.2037 24.8988 21.6762 25.4262C21.1488 25.9537 20.4334 26.25 19.6875 26.25H6.5625C5.81658 26.25 5.10121 25.9537 4.57376 25.4262C4.04632 24.8988 3.75 24.1834 3.75 23.4375V10.3125C3.75 9.56658 4.04632 8.85121 4.57376 8.32377C5.10121 7.79632 5.81658 7.5 6.5625 7.5H12.5" stroke="#676767" stroke-width="2" stroke-linecap="round" stroke-linejoin="round"/>
</svg>