<svg xmlns="http://www.w3.org/2000/svg" width="181" height="45" viewBox="0 0 181 45" fill="none">
  <g clip-path="url(#clip0_35_360)">
    <path d="M0 0.710693V43.7463H12.1753V37.5381H6.08767V6.85864H12.1753V0.710693H0Z" fill="#07C98F"/>
    <path d="M30.6795 0.710693V6.85863H36.7671V25.3025H30.6795V31.4504H42.9754V0.710693H30.6795Z" fill="#07C98F"/>
    <path d="M171.238 22.108C172.504 23.1929 174.071 23.6751 175.578 23.6751C177.688 23.6751 179.737 22.4697 179.737 20.3601C179.737 16.6231 174.553 17.1053 174.553 15.7792C174.553 15.2368 175.216 14.9957 176 14.9957C176.784 14.9957 177.507 15.297 178.049 15.6587L179.315 13.7299C178.532 13.0669 177.145 12.5847 175.759 12.5847C173.649 12.5847 171.66 13.8505 171.66 15.8998C171.66 19.3354 176.844 18.7327 176.844 20.3601C176.844 20.9025 176.241 21.2642 175.458 21.2642C174.373 21.2642 173.288 20.8423 172.564 20.2998L171.238 22.108Z" fill="#1F1F24"/>
    <path d="M163.885 28.2559L171.178 12.7655H168.164L165.151 19.3354L161.836 12.7655H158.762L163.704 22.4093L160.932 28.2559H163.885Z" fill="#1F1F24"/>
    <path d="M154.723 12.7052V13.6093C153.819 12.886 152.674 12.4641 151.468 12.4641C148.575 12.4641 146.285 14.7545 146.285 18.0093C146.285 21.2641 148.636 23.5545 151.529 23.5545C152.855 23.5545 153.94 23.0723 154.784 22.4093V23.3134H157.436V12.7052H154.723ZM149.118 18.0696C149.118 16.3819 150.384 15.1162 151.89 15.1162C152.915 15.1162 153.819 15.5381 154.482 16.3819V19.8175C153.879 20.6011 152.975 21.0833 151.89 21.0833C150.444 21.023 149.118 19.8175 149.118 18.0696Z" fill="#1F1F24"/>
    <path d="M138.027 14.5737V10.6559H140.438C141.704 10.6559 142.247 10.897 142.548 11.3189C142.849 11.6806 143.03 12.1025 143.03 12.5847C143.03 13.0669 142.849 13.5491 142.548 13.8504C142.186 14.2723 141.644 14.5134 140.438 14.5134H138.027V14.5737ZM140.8 17.1655C142.91 17.1655 144.236 16.4422 145.08 15.3573C145.682 14.5737 145.984 13.6093 145.984 12.6449C145.984 11.6203 145.682 10.7162 145.08 9.93261C144.236 8.84768 142.97 8.12439 140.8 8.12439H135.134V23.3737H138.088V17.1655H140.8Z" fill="#1F1F24"/>
    <path d="M128.384 12.5847C128.082 12.5244 127.841 12.5244 127.54 12.5244C126.214 12.5244 125.069 12.9463 124.466 13.7299V12.645H121.693V23.3135H124.526V16.623C125.189 15.5381 126.334 15.1162 127.359 15.1162C127.781 15.1162 128.082 15.1162 128.323 15.1765V12.5847H128.384Z" fill="#1F1F24"/>
    <path d="M116.329 12.7052V13.6093C115.425 12.886 114.279 12.4641 113.074 12.4641C110.181 12.4641 107.89 14.7545 107.89 18.0093C107.89 21.2641 110.241 23.5545 113.134 23.5545C114.46 23.5545 115.545 23.0723 116.389 22.4093V23.3134H119.041V12.7052H116.329ZM110.723 18.0696C110.723 16.3819 111.989 15.1162 113.496 15.1162C114.521 15.1162 115.425 15.5381 116.088 16.3819V19.8175C115.485 20.6011 114.581 21.0833 113.496 21.0833C111.989 21.023 110.723 19.8175 110.723 18.0696Z" fill="#1F1F24"/>
    <path d="M106.022 7.8833H103.189V23.3737H106.022V7.8833Z" fill="#1F1F24"/>
    <path d="M97.6438 12.7655V19.697C97.2219 20.1792 96.3781 21.023 95.1726 21.023C94.6301 21.023 94.0274 20.8422 93.5452 20.36C93.2438 19.9984 93.0027 19.5162 93.0027 18.5518V12.7655H90.1699V18.371C90.1699 19.9381 90.5315 21.0833 91.2548 21.9271C92.0383 22.9518 93.3644 23.6148 94.811 23.6148C95.9562 23.6148 97.0411 23.1929 97.8849 22.4696V23.434H100.537V12.7655H97.6438Z" fill="#1F1F24"/>
    <path d="M77.5124 12.7052V28.2559H80.285V22.5902C81.0082 23.1929 82.0329 23.5546 83.2384 23.5546C86.0713 23.5546 88.3617 21.2641 88.3617 18.0093C88.3617 14.8148 86.1315 12.5244 83.2987 12.5244C82.0932 12.5244 81.0082 12.9463 80.1041 13.6696V12.7655H77.5124V12.7052ZM85.5891 18.0093C85.5891 19.7573 84.3233 20.9628 82.8165 20.9628C81.7918 20.9628 80.8877 20.4806 80.285 19.697V16.3217C80.948 15.5381 81.8521 15.0559 82.8165 15.0559C84.3233 15.1162 85.5891 16.3217 85.5891 18.0093Z" fill="#1F1F24"/>
    <path d="M67.3863 18.0696C67.3863 16.4422 68.4712 15.1162 70.0986 15.1162C71.726 15.1162 72.811 16.5025 72.811 18.0696C72.811 19.697 71.726 21.023 70.0986 21.023C68.4712 21.023 67.3863 19.697 67.3863 18.0696ZM64.5534 18.0696C64.5534 21.1436 66.9041 23.6148 70.0986 23.6148C73.2931 23.6148 75.6438 21.1436 75.6438 18.0696C75.6438 14.9956 73.2931 12.5244 70.0986 12.5244C66.9644 12.5244 64.5534 14.9956 64.5534 18.0696Z" fill="#1F1F24"/>
    <path d="M56.2959 14.5737V10.6559H58.7068C59.9726 10.6559 60.5151 10.897 60.8164 11.3189C61.1178 11.6806 61.2986 12.1025 61.2986 12.5847C61.2986 13.0669 61.1178 13.5491 60.8164 13.8504C60.4548 14.2723 59.9123 14.5134 58.7068 14.5134H56.2959V14.5737ZM59.0685 17.1655C61.1781 17.1655 62.5041 16.4422 63.3479 15.3573C63.9507 14.5737 64.252 13.6093 64.252 12.6449C64.252 11.6203 63.9507 10.7162 63.3479 9.93261C62.5041 8.84768 61.2383 8.12439 59.0685 8.12439H53.4027V23.3737H56.3562V17.1655H59.0685Z" fill="#1F1F24"/>
  </g>
  <defs>
    <clipPath id="clip0_35_360">
      <rect width="180.219" height="44" fill="white" transform="translate(0 0.228516)"/>
    </clipPath>
  </defs>
</svg>