<svg xmlns="http://www.w3.org/2000/svg" width="153" height="45" viewBox="0 0 153 45" fill="none">
  <g clip-path="url(#clip0_35_346)">
    <path d="M67.6806 13.6492C73.4154 13.6492 73.9159 10.9651 73.9159 10.9651H43.8857C42.9406 9.90336 40.7822 8.34459 40.7822 5.94275C40.7822 4.92477 41.5911 4.86114 42.408 4.86114H45.4675V5.99842C45.4675 5.99842 46.3284 5.83539 46.3284 4.29648C46.3284 3.51311 46.2844 2.85699 45.4675 2.65816L41.2667 1.40158C41.1906 1.37773 41.1265 1.32603 41.0864 1.25445C40.69 0.550612 40.0373 0.228516 38.6798 0.228516H36.5734C35.2959 0.228516 34.1626 1.05563 33.7983 2.26846C33.0054 4.9009 33.4579 7.70432 30.03 10.9651H0C0 10.9651 0.500566 13.6492 6.23505 13.6492H28.1158C27.9596 13.9753 27.8195 14.3133 27.6993 14.6553H5.19388C5.19388 14.6553 5.69444 17.3394 11.4289 17.3394H27.1708C27.1627 17.5064 27.1587 17.6734 27.1587 17.8444C27.1587 18.0154 27.1627 18.1824 27.1708 18.3494H10.3878C10.3878 18.3494 10.8884 21.0336 16.6228 21.0336H27.6993C27.8195 21.3795 27.9596 21.7136 28.1158 22.0397H15.5816C15.5816 22.0397 16.0822 24.7238 21.8167 24.7238H30.03V32.8796C30.03 38.5739 32.733 39.071 32.733 39.071V26.6245C33.0614 26.7796 33.4018 26.9188 33.7461 27.0381V38.0371C33.7461 43.7315 36.4493 44.2285 36.4493 44.2285V27.563C36.6174 27.5709 36.7856 27.5749 36.9578 27.5749C37.13 27.5749 37.2982 27.5709 37.4664 27.563V44.2285C37.4664 44.2285 40.1695 43.7315 40.1695 38.0371V27.0381C40.5178 26.9188 40.8542 26.7796 41.1826 26.6245V39.071C41.1826 39.071 43.8857 38.5739 43.8857 32.8796V24.7238H52.099C57.8334 24.7238 58.334 22.0397 58.334 22.0397H45.7998C45.956 21.7136 46.0961 21.3755 46.2163 21.0336H57.2928C63.0273 21.0336 63.5279 18.3494 63.5279 18.3494H46.7449C46.7529 18.1824 46.7569 18.0154 46.7569 17.8444C46.7569 17.6734 46.7529 17.5064 46.7449 17.3394H62.4867C68.2212 17.3394 68.7217 14.6553 68.7217 14.6553H46.2163C46.0961 14.3093 45.956 13.9753 45.7998 13.6492H67.6806ZM30.0781 17.8444C30.0781 14.0707 33.1575 11.0128 36.9578 11.0128C40.7581 11.0128 43.8376 14.0707 43.8376 17.8444C43.8376 21.6182 40.7581 24.6761 36.9578 24.6761C33.1575 24.6761 30.0781 21.6182 30.0781 17.8444Z" fill="#009EA8"/>
    <path d="M82.9421 14.6871C83.0101 13.1283 83.0658 11.3667 83.0658 9.90735C83.0658 8.44792 83.0101 6.68237 82.9421 5.12756H85.4446C86.4896 7.14765 87.4108 8.78995 88.8003 11.0963V9.33473C88.8003 8.1457 88.7728 6.68635 88.6882 5.12756H90.959C90.8909 6.68635 90.8346 8.44792 90.8346 9.90735C90.8346 11.3667 90.8909 13.1323 90.959 14.6871H88.4558C87.5909 13.0329 86.2812 10.6987 85.1001 8.71831V10.48C85.1001 11.7365 85.14 13.1283 85.2122 14.6871H82.9421Z" fill="#48494A"/>
    <path d="M91.8397 12.8142C91.8397 11.3786 92.9012 10.5754 94.5072 10.5754C95.7846 10.5634 96.2129 10.4243 96.2129 9.97492C96.2129 9.63296 95.8684 9.34661 94.9878 9.34661C93.9304 9.34661 92.8689 9.81184 92.1003 10.9571L92.2646 8.98877C92.3044 8.61889 92.4564 8.44392 92.6365 8.30477C93.0896 7.95085 93.8905 7.60889 95.1397 7.60889C96.998 7.60889 98.2754 8.55131 98.2754 10.5435C98.2754 11.2553 98.2348 11.979 98.2348 12.4006C98.2348 13.0845 98.2348 13.8202 98.2754 14.6831H96.2411L96.3091 13.5339C96.1565 14.19 95.5398 14.9257 94.2583 14.9257C92.8689 14.9257 91.8356 14.1344 91.8356 12.8102L91.8397 12.8142ZM96.3249 11.327C96.0644 11.8995 95.4999 12.1063 94.7148 12.1063C94.1662 12.1063 93.8341 12.337 93.8341 12.7226C93.8341 13.1084 94.1628 13.3231 94.6873 13.3231C95.6643 13.3231 96.3373 12.7505 96.3249 11.327Z" fill="#48494A"/>
    <path d="M99.8731 11.7922L99.913 9.64885H98.7594V7.85942H99.913C99.9013 6.83348 99.8848 6.05806 99.8449 5.12756H101.976C101.919 6.05806 101.907 6.83348 101.907 7.85942H104.534V9.64885H101.907V11.5894C101.907 12.5318 102.404 12.997 103.269 12.997C104.054 12.997 104.59 12.5875 104.919 11.7524L104.794 13.9514C104.783 14.2934 104.686 14.4286 104.45 14.5797C104.162 14.7706 103.721 14.9336 102.869 14.9336C101.162 14.9336 99.8168 13.9514 99.869 11.7922H99.8731Z" fill="#48494A"/>
    <path d="M105.555 5.61669C105.555 4.88104 106.16 4.27661 106.905 4.27661C107.649 4.27661 108.254 4.87707 108.254 5.61669C108.254 6.35633 107.649 6.95678 106.905 6.95678C106.16 6.95678 105.555 6.35633 105.555 5.61669ZM105.843 14.6871C105.884 13.7168 105.912 12.5954 105.912 11.2713C105.912 9.94712 105.884 8.84162 105.843 7.85547H107.962C107.906 8.83763 107.894 9.94712 107.894 11.2713C107.894 12.5954 107.906 13.7447 107.962 14.6871H105.843Z" fill="#48494A"/>
    <path d="M111.29 14.687C110.329 12.0665 109.668 10.4521 108.555 7.85938H110.877C111.178 9.0086 111.81 10.9053 112.555 12.8737C113.284 10.9053 113.917 9.0086 114.221 7.85938H116.544C115.442 10.456 114.77 12.0665 113.809 14.687H111.29Z" fill="#48494A"/>
    <path d="M123.34 11.6967H118.334C118.514 12.7226 119.419 13.1601 120.464 13.1601C121.729 13.1601 122.486 12.667 122.927 12.0665L122.735 13.8838C122.723 14.0905 122.651 14.2814 122.458 14.4166C122.154 14.6234 121.538 14.9375 120.3 14.9375C117.577 14.9375 116.284 13.1879 116.284 11.2354C116.284 8.92905 117.853 7.61682 119.944 7.61682C122.31 7.61682 123.34 9.41814 123.34 11.1121V11.7006V11.6967ZM121.289 10.3725C121.205 9.82775 120.741 9.32271 119.899 9.32271C119.007 9.32271 118.51 9.82775 118.374 10.3725H121.289Z" fill="#48494A"/>
    <path d="M84.9083 27.0143C84.2194 23.845 83.2418 20.4291 82.3371 17.4547H84.8121C85.3208 20.1309 85.8007 21.9481 86.4497 24.4335C87.1386 21.9481 87.6308 20.0236 88.0873 17.4547H91.0869C91.5393 20.0236 92.048 21.9481 92.7252 24.4335C93.3694 21.9481 93.8541 20.1309 94.3628 17.4547H96.8378C95.9282 20.4331 94.9513 23.845 94.2666 27.0143H91.1433C90.7424 24.7755 90.1539 22.1231 89.5895 20.1309C89.0409 22.1231 88.4359 24.7755 88.0358 27.0143H84.9118H84.9083Z" fill="#48494A"/>
    <path d="M96.3249 23.5983C96.3249 21.467 97.8505 19.936 100.037 19.936C102.224 19.936 103.765 21.467 103.765 23.5983C103.765 25.7298 102.24 27.2607 100.037 27.2607C97.8347 27.2607 96.3249 25.7298 96.3249 23.5983ZM101.743 23.5983C101.743 22.5048 101.043 21.7413 100.037 21.7413C99.0323 21.7413 98.3476 22.5048 98.3476 23.5983C98.3476 24.6919 99.0481 25.4554 100.037 25.4554C101.026 25.4554 101.743 24.6919 101.743 23.5983Z" fill="#48494A"/>
    <path d="M104.714 27.0142C104.754 26.0321 104.783 24.9385 104.783 23.5984C104.783 22.2583 104.754 21.1688 104.714 20.1826H106.805L106.721 21.5227C106.953 20.636 107.642 19.9401 108.715 19.9401C109.404 19.9401 109.76 20.1468 109.953 20.2939C110.076 20.4013 110.201 20.5127 110.212 20.7592L110.321 23.2167C110.016 22.481 109.372 21.9482 108.435 21.9482C107.498 21.9482 106.949 22.481 106.716 23.2167V23.6541C106.716 24.9226 106.745 25.9644 106.801 27.0142H104.71H104.714Z" fill="#48494A"/>
    <path d="M111.266 27.0143C111.322 25.5509 111.35 23.9285 111.35 21.9045C111.35 19.8804 111.322 18.2182 111.266 16.7947H113.396C113.328 18.2143 113.312 19.8685 113.312 21.6698V22.7753C113.973 21.9283 114.618 21.0416 115.222 20.1786H117.781C116.736 21.2722 115.815 22.3498 114.974 23.5109C115.815 24.6443 116.94 25.9685 117.877 27.0063H115.334C114.689 26.0917 114.013 25.1771 113.312 24.2625C113.312 25.3004 113.352 26.1355 113.396 27.0063H111.266V27.0143Z" fill="#48494A"/>
    <path d="M119.299 27.0142C119.355 25.8928 119.367 25.0458 119.367 23.4075V21.972H118.378V20.1826H119.367V19.8287C119.367 17.574 120.757 16.5918 122.35 16.5918C123.107 16.5918 123.52 16.7429 123.808 16.906C124.068 17.0571 124.125 17.2201 124.136 17.5064L124.22 19.6378C123.96 18.9698 123.463 18.5721 122.679 18.5721C121.894 18.5721 121.345 19.1169 121.345 19.9361V20.1826H123.063V21.972H121.345V23.4075C121.345 25.0458 121.357 25.8928 121.413 27.0142H119.295H119.299Z" fill="#48494A"/>
    <path d="M123.684 23.5983C123.684 21.467 125.21 19.936 127.396 19.936C129.583 19.936 131.124 21.467 131.124 23.5983C131.124 25.7298 129.599 27.2607 127.396 27.2607C125.194 27.2607 123.684 25.7298 123.684 23.5983ZM129.106 23.5983C129.106 22.5048 128.405 21.7413 127.4 21.7413C126.395 21.7413 125.71 22.5048 125.71 23.5983C125.71 24.6919 126.411 25.4554 127.4 25.4554C128.389 25.4554 129.106 24.6919 129.106 23.5983Z" fill="#48494A"/>
    <path d="M131.909 27.0142C131.949 26.0321 131.977 24.9385 131.977 23.5984C131.977 22.2583 131.949 21.1688 131.909 20.1826H133.999L133.915 21.5227C134.148 20.636 134.837 19.9401 135.91 19.9401C136.599 19.9401 136.955 20.1468 137.147 20.2939C137.271 20.4013 137.396 20.5127 137.407 20.7592L137.516 23.2167C137.211 22.481 136.566 21.9482 135.629 21.9482C134.692 21.9482 134.144 22.481 133.911 23.2167V23.6541C133.911 24.9226 133.939 25.9644 133.996 27.0142H131.905H131.909Z" fill="#48494A"/>
    <path d="M138.072 23.5983C138.072 21.4272 139.682 19.936 141.881 19.936C142.665 19.936 143.27 20.0871 143.571 20.2382C143.859 20.3734 143.927 20.5524 143.943 20.783L144.067 22.7513C143.738 22.1787 143.034 21.7692 142.044 21.7692C140.835 21.7692 140.078 22.5605 140.078 23.5983C140.078 24.7317 140.891 25.4276 142.044 25.4276C143.282 25.4276 143.983 24.7993 144.343 24.1431L144.219 26.1632C144.203 26.4654 144.135 26.5847 143.971 26.7239C143.547 27.0499 142.79 27.2567 141.84 27.2567C139.638 27.2567 138.072 25.8769 138.072 23.5944V23.5983Z" fill="#48494A"/>
    <path d="M152.24 24.0239H147.234C147.414 25.0498 148.32 25.4872 149.365 25.4872C150.631 25.4872 151.388 24.9941 151.828 24.3937L151.636 26.2109C151.623 26.4177 151.551 26.6086 151.359 26.7438C151.055 26.9506 150.438 27.2647 149.201 27.2647C146.477 27.2647 145.184 25.5151 145.184 23.5626C145.184 21.2562 146.754 19.944 148.844 19.944C151.211 19.944 152.24 21.7453 152.24 23.4393V24.0279V24.0239ZM150.19 22.6997C150.106 22.1549 149.641 21.6499 148.8 21.6499C147.907 21.6499 147.411 22.1549 147.275 22.6997H150.19Z" fill="#48494A"/>
    <path d="M82.9421 39.3414C83.0259 37.7826 83.0658 36.021 83.0658 34.5616C83.0658 33.1023 83.0259 31.3367 82.9421 29.7819H87.2066C89.0209 29.7819 90.4386 30.6964 90.4386 32.6768C90.4386 34.5338 89.089 35.5597 87.2066 35.5597H85.1159C85.1324 37.2935 85.1723 38.0729 85.2287 39.3414H82.9455H82.9421ZM87.0423 33.6033C87.7154 33.6033 88.2798 33.3727 88.2798 32.6728C88.2798 31.9729 87.7154 31.7304 87.0423 31.7304H85.1723C85.1159 32.3865 85.1159 32.9591 85.1159 33.6033H87.0423Z" fill="#48494A"/>
    <path d="M90.7947 37.4684C90.7947 36.0329 91.8562 35.2297 93.4615 35.2297C94.7389 35.2177 95.1679 35.0786 95.1679 34.6292C95.1679 34.2873 94.8234 34.0009 93.9421 34.0009C92.8854 34.0009 91.8239 34.4662 91.0552 35.6114L91.2189 33.6431C91.2594 33.2733 91.4114 33.0983 91.5915 32.9591C92.0439 32.6051 92.8448 32.2632 94.0947 32.2632C95.9523 32.2632 97.2297 33.2056 97.2297 35.1978C97.2297 35.9097 97.1898 36.6333 97.1898 37.0549C97.1898 37.7388 97.1898 38.4745 97.2297 39.3374H95.1954L95.2634 38.1882C95.1115 38.8443 94.4948 39.58 93.2133 39.58C91.8239 39.58 90.7906 38.7887 90.7906 37.4645L90.7947 37.4684ZM95.2799 35.9813C95.0194 36.5539 94.4549 36.7606 93.6698 36.7606C93.1212 36.7606 92.7891 36.9913 92.7891 37.3769C92.7891 37.7627 93.1171 37.9774 93.6416 37.9774C94.6192 37.9774 95.2916 37.4048 95.2799 35.9813Z" fill="#48494A"/>
    <path d="M98.2795 39.3414C98.3194 38.3592 98.3476 37.2657 98.3476 35.9256C98.3476 34.5855 98.3194 33.4959 98.2795 32.5098H100.37L100.286 33.8498C100.518 32.9631 101.206 32.2672 102.279 32.2672C102.968 32.2672 103.325 32.474 103.517 32.6211C103.641 32.7285 103.765 32.8398 103.777 33.0864L103.885 35.5438C103.582 34.8082 102.937 34.2753 102 34.2753C101.063 34.2753 100.514 34.8082 100.281 35.5438V35.9812C100.281 37.2497 100.31 38.2916 100.365 39.3414H98.2754H98.2795Z" fill="#48494A"/>
    <path d="M105.775 36.4465L105.816 34.3031H104.662V32.5137H105.816C105.804 31.4878 105.788 30.7124 105.748 29.7819H107.878C107.822 30.7124 107.81 31.4878 107.81 32.5137H110.437V34.3031H107.81V36.2437C107.81 37.1861 108.307 37.6514 109.172 37.6514C109.957 37.6514 110.493 37.2418 110.822 36.4067L110.697 38.6057C110.685 38.9478 110.589 39.0829 110.353 39.234C110.065 39.4249 109.624 39.5879 108.771 39.5879C107.065 39.5879 105.72 38.6057 105.772 36.4465H105.775Z" fill="#48494A"/>
    <path d="M111.702 39.3413C111.742 38.3711 111.77 37.2498 111.77 35.9256C111.77 34.6014 111.742 33.4959 111.702 32.5097H113.765L113.697 33.7942C113.901 32.975 114.562 32.2632 115.843 32.2632C117.301 32.2632 118.29 33.1937 118.29 34.9672V35.9216C118.29 37.2458 118.318 38.3672 118.358 39.3374H116.28C116.335 38.3672 116.348 37.2895 116.348 35.9653V35.5001C116.348 34.6809 115.923 34.0805 115.07 34.0805C114.329 34.0805 113.873 34.5855 113.708 35.2535V35.854C113.708 37.1781 113.721 38.3672 113.776 39.3374H111.698L111.702 39.3413Z" fill="#48494A"/>
    <path d="M126.255 36.351H121.249C121.43 37.3769 122.334 37.8144 123.379 37.8144C124.645 37.8144 125.402 37.3213 125.842 36.7208L125.65 38.5381C125.638 38.7448 125.566 38.9357 125.374 39.0709C125.069 39.2777 124.453 39.5918 123.215 39.5918C120.493 39.5918 119.199 37.8422 119.199 35.8897C119.199 33.5833 120.768 32.2711 122.859 32.2711C125.225 32.2711 126.255 34.0724 126.255 35.7664V36.355V36.351ZM124.209 35.0268C124.125 34.482 123.66 33.977 122.819 33.977C121.926 33.977 121.43 34.482 121.293 35.0268H124.209Z" fill="#48494A"/>
    <path d="M127.056 39.3414C127.096 38.3592 127.124 37.2657 127.124 35.9256C127.124 34.5855 127.096 33.4959 127.056 32.5098H129.146L129.062 33.8498C129.294 32.9631 129.983 32.2672 131.056 32.2672C131.745 32.2672 132.102 32.474 132.294 32.6211C132.418 32.7285 132.542 32.8398 132.554 33.0864L132.662 35.5438C132.358 34.8082 131.713 34.2753 130.776 34.2753C129.839 34.2753 129.291 34.8082 129.058 35.5438V35.9812C129.058 37.2497 129.086 38.2916 129.142 39.3414H127.052H127.056Z" fill="#48494A"/>
    <path d="M133.851 39.0113C133.643 38.888 133.507 38.7369 133.495 38.4227L133.387 36.347C133.992 37.4127 135.121 37.8899 136.206 37.8899C137.059 37.8899 137.251 37.6593 137.251 37.369C137.251 37.0548 137.043 36.8918 136.494 36.7804L135.229 36.522C134.1 36.2755 133.303 35.5517 133.303 34.3905C133.303 32.8199 134.732 32.2592 136.094 32.2592C137.207 32.2592 137.856 32.4898 138.308 32.7244C138.569 32.8477 138.653 33.0386 138.665 33.2851L138.773 35.2097C138.304 34.4979 137.343 33.9532 136.106 33.9532C135.485 33.9532 135.213 34.1321 135.213 34.4184C135.213 34.6769 135.445 34.816 135.858 34.9115L137.219 35.1978C138.388 35.4563 139.158 36.1124 139.158 37.2855C139.158 38.7886 138.084 39.5799 136.298 39.5799C135.281 39.5799 134.468 39.3731 133.851 39.0073V39.0113Z" fill="#48494A"/>
  </g>
  <defs>
    <clipPath id="clip0_35_346">
      <rect width="152.625" height="44" fill="white" transform="translate(0 0.228516)"/>
    </clipPath>
  </defs>
</svg>