<svg width="789" height="64" viewBox="0 0 789 64" fill="none" xmlns="http://www.w3.org/2000/svg">
<path d="M98.4445 19.521C106.786 19.521 107.514 15.6168 107.514 15.6168H63.8337C62.459 14.0725 59.3195 11.8052 59.3195 8.31161C59.3195 6.83091 60.4961 6.73836 61.6843 6.73836H66.1345V8.39259C66.1345 8.39259 67.3868 8.15545 67.3868 5.91704C67.3868 4.77759 67.3227 3.82323 66.1345 3.53403L60.0243 1.70628C59.9136 1.67158 59.8204 1.59639 59.7621 1.49227C59.1855 0.468504 58.2361 0 56.2615 0H53.1976C51.3395 0 49.6911 1.20307 49.1611 2.96719C48.0078 6.7962 48.666 10.8739 43.68 15.6168H0C0 15.6168 0.728096 19.521 9.06917 19.521H40.8957C40.6685 19.9953 40.4647 20.4869 40.2899 20.9844H7.55473C7.55473 20.9844 8.28282 24.8886 16.6239 24.8886H39.5211C39.5094 25.1315 39.5036 25.3744 39.5036 25.6231C39.5036 25.8718 39.5094 26.1148 39.5211 26.3577H15.1095C15.1095 26.3577 15.8376 30.2619 24.1786 30.2619H40.2899C40.4647 30.7651 40.6685 31.251 40.8957 31.7253H22.6642C22.6642 31.7253 23.3923 35.6295 31.7334 35.6295H43.68V47.4925C43.68 55.7751 47.6117 56.4981 47.6117 56.4981V38.3942C48.0893 38.6198 48.5844 38.8222 49.0853 38.9958V54.9943C49.0853 63.277 53.0171 64 53.0171 64V39.7592C53.2617 39.7708 53.5063 39.7766 53.7568 39.7766C54.0073 39.7766 54.2519 39.7708 54.4966 39.7592V64C54.4966 64 58.4283 63.277 58.4283 54.9943V38.9958C58.935 38.8222 59.4243 38.6198 59.9019 38.3942V56.4981C59.9019 56.4981 63.8337 55.7751 63.8337 47.4925V35.6295H75.7803C84.1213 35.6295 84.8494 31.7253 84.8494 31.7253H66.6179C66.8451 31.251 67.0489 30.7593 67.2237 30.2619H83.335C91.6761 30.2619 92.4042 26.3577 92.4042 26.3577H67.9926C68.0042 26.1148 68.01 25.8718 68.01 25.6231C68.01 25.3744 68.0042 25.1315 67.9926 24.8886H90.8897C99.2308 24.8886 99.9589 20.9844 99.9589 20.9844H67.2237C67.0489 20.4812 66.8451 19.9953 66.6179 19.521H98.4445ZM43.7499 25.6231C43.7499 20.1341 48.2291 15.6862 53.7568 15.6862C59.2845 15.6862 63.7638 20.1341 63.7638 25.6231C63.7638 31.1122 59.2845 35.5601 53.7568 35.5601C48.2291 35.5601 43.7499 31.1122 43.7499 25.6231Z" fill="#009EA8"/>
<path d="M122 51.0163C122.255 45.1743 122.464 38.5723 122.464 33.103C122.464 27.6334 122.255 21.0165 122 15.1894H131.379C135.295 22.7602 138.748 28.9152 143.955 37.5589V30.9569C143.955 26.5007 143.852 21.0314 143.535 15.1894H152.046C151.791 21.0314 151.579 27.6334 151.579 33.103C151.579 38.5723 151.791 45.1893 152.046 51.0163H142.664C139.423 44.8167 134.515 36.0686 130.088 28.6467V35.249C130.088 39.9583 130.237 45.1743 130.508 51.0163H122Z" fill="#48494A"/>
<path d="M155.346 43.997C155.346 38.6168 159.325 35.6066 165.343 35.6066C170.131 35.5618 171.736 35.0403 171.736 33.3562C171.736 32.0746 170.445 31.0014 167.145 31.0014C163.182 31.0014 159.203 32.745 156.323 37.0371L156.939 29.6603C157.088 28.2741 157.658 27.6184 158.333 27.0969C160.031 25.7704 163.032 24.4888 167.714 24.4888C174.678 24.4888 179.466 28.0208 179.466 35.4873C179.466 38.1549 179.314 40.8672 179.314 42.447C179.314 45.0104 179.314 47.7674 179.466 51.0015H171.842L172.097 46.6945C171.525 49.1533 169.214 51.9105 164.411 51.9105C159.203 51.9105 155.331 48.9449 155.331 43.9821L155.346 43.997ZM172.156 38.4233C171.179 40.5691 169.064 41.3442 166.122 41.3442C164.065 41.3442 162.821 42.2086 162.821 43.6541C162.821 45.0998 164.053 45.9045 166.019 45.9045C169.68 45.9045 172.202 43.7584 172.156 38.4233Z" fill="#48494A"/>
<path d="M185.454 40.167L185.603 32.1342H181.28V25.4278H185.603C185.56 21.5828 185.498 18.6767 185.348 15.1894H193.333C193.122 18.6767 193.078 21.5828 193.078 25.4278H202.923V32.1342H193.078V39.4069C193.078 42.9389 194.938 44.6825 198.18 44.6825C201.122 44.6825 203.132 43.1476 204.364 40.0178L203.897 48.2593C203.853 49.5409 203.493 50.0477 202.606 50.614C201.527 51.3293 199.875 51.9402 196.68 51.9402C190.285 51.9402 185.243 48.2593 185.439 40.167H185.454Z" fill="#48494A"/>
<path d="M206.75 17.0223C206.75 14.2653 209.017 12 211.807 12C214.598 12 216.865 14.2504 216.865 17.0223C216.865 19.7943 214.598 22.0447 211.807 22.0447C209.017 22.0447 206.75 19.7943 206.75 17.0223ZM207.829 51.0162C207.981 47.3798 208.087 43.1771 208.087 38.2146C208.087 33.2518 207.981 29.1086 207.829 25.4128H215.77C215.559 29.0937 215.515 33.2518 215.515 38.2146C215.515 43.1771 215.559 47.4842 215.77 51.0162H207.829Z" fill="#48494A"/>
<path d="M228.241 51.0162C224.639 41.1952 222.163 35.1446 217.991 25.4277H226.695C227.821 29.7348 230.191 36.8434 232.984 44.2204C235.716 36.8434 238.086 29.7348 239.228 25.4277H247.931C243.804 35.1593 241.284 41.1952 237.682 51.0162H228.241Z" fill="#48494A"/>
<path d="M273.401 39.8093H254.641C255.316 43.6541 258.709 45.2936 262.626 45.2936C267.367 45.2936 270.203 43.4457 271.855 41.1953L271.134 48.006C271.09 48.7808 270.819 49.4963 270.098 50.0029C268.959 50.7779 266.648 51.9551 262.01 51.9551C251.804 51.9551 246.957 45.398 246.957 38.0804C246.957 29.4367 252.84 24.5187 260.675 24.5187C269.544 24.5187 273.401 31.2697 273.401 37.6184V39.824V39.8093ZM265.718 34.8465C265.401 32.8048 263.661 30.9121 260.508 30.9121C257.163 30.9121 255.3 32.8048 254.79 34.8465H265.718Z" fill="#48494A"/>
<path d="M304.269 51.0612C301.687 39.1834 298.023 26.3815 294.632 15.2341H303.908C305.815 25.2638 307.613 32.0745 310.045 41.3889C312.627 32.0745 314.472 24.8616 316.183 15.2341H327.425C329.12 24.8616 331.027 32.0745 333.565 41.3889C335.979 32.0745 337.795 25.2638 339.702 15.2341H348.978C345.569 26.3965 341.908 39.1834 339.341 51.0612H327.636C326.134 42.6708 323.928 32.7303 321.813 25.2638C319.757 32.7303 317.489 42.6708 315.99 51.0612H304.282H304.269Z" fill="#48494A"/>
<path d="M347.056 38.2592C347.056 30.2713 352.773 24.5337 360.969 24.5337C369.163 24.5337 374.94 30.2713 374.94 38.2592C374.94 46.2475 369.222 51.985 360.969 51.985C352.714 51.985 347.056 46.2475 347.056 38.2592ZM367.362 38.2592C367.362 34.1609 364.736 31.2996 360.969 31.2996C357.202 31.2996 354.636 34.1609 354.636 38.2592C354.636 42.3576 357.262 45.2191 360.969 45.2191C364.674 45.2191 367.362 42.3576 367.362 38.2592Z" fill="#48494A"/>
<path d="M378.498 51.0612C378.647 47.3803 378.753 43.2819 378.753 38.2594C378.753 33.2371 378.647 29.1537 378.498 25.4578H386.331L386.016 30.4801C386.887 27.1568 389.469 24.5488 393.491 24.5488C396.073 24.5488 397.408 25.3236 398.129 25.8749C398.593 26.2774 399.059 26.6948 399.103 27.6188L399.51 36.8288C398.369 34.0716 395.952 32.0748 392.44 32.0748C388.928 32.0748 386.872 34.0716 386.001 36.8288V38.4681C386.001 43.2222 386.107 47.1267 386.318 51.0612H378.482H378.498Z" fill="#48494A"/>
<path d="M403.05 51.0612C403.262 45.5767 403.367 39.4964 403.367 31.9106C403.367 24.3249 403.262 18.0954 403.05 12.7603H411.035C410.78 18.0807 410.721 24.2803 410.721 31.0312V35.1744C413.197 32 415.614 28.6767 417.879 25.4426H427.469C423.552 29.5409 420.1 33.5797 416.948 37.9314C420.1 42.1789 424.318 47.1417 427.829 51.0313H418.299C415.882 47.6037 413.346 44.1758 410.721 40.7481C410.721 44.6377 410.87 47.7675 411.035 51.0313H403.05V51.0612Z" fill="#48494A"/>
<path d="M433.158 51.061C433.367 46.8583 433.413 43.6839 433.413 37.5439V32.1639H429.705V25.4576H433.413V24.1311C433.413 15.6812 438.62 12 444.593 12C447.43 12 448.976 12.5663 450.055 13.1775C451.032 13.7438 451.243 14.3548 451.287 15.4279L451.601 23.4159C450.627 20.9122 448.764 19.4219 445.825 19.4219C442.882 19.4219 440.826 21.4636 440.826 24.5336V25.4576H447.265V32.1639H440.826V37.5439C440.826 43.6839 440.872 46.8583 441.081 51.061H433.143H433.158Z" fill="#48494A"/>
<path d="M449.591 38.2592C449.591 30.2713 455.309 24.5337 463.502 24.5337C471.698 24.5337 477.475 30.2713 477.475 38.2592C477.475 46.2475 471.758 51.985 463.502 51.985C455.249 51.985 449.591 46.2475 449.591 38.2592ZM469.913 38.2592C469.913 34.1609 467.285 31.2996 463.518 31.2996C459.751 31.2996 457.185 34.1609 457.185 38.2592C457.185 42.3576 459.813 45.2191 463.518 45.2191C467.226 45.2191 469.913 42.3576 469.913 38.2592Z" fill="#48494A"/>
<path d="M480.418 51.0612C480.567 47.3803 480.673 43.2819 480.673 38.2594C480.673 33.2371 480.567 29.1537 480.418 25.4578H488.251L487.936 30.4801C488.807 27.1568 491.389 24.5488 495.411 24.5488C497.993 24.5488 499.327 25.3236 500.049 25.8749C500.513 26.2774 500.979 26.6948 501.023 27.6188L501.43 36.8288C500.289 34.0716 497.872 32.0748 494.36 32.0748C490.848 32.0748 488.792 34.0716 487.921 36.8288V38.4681C487.921 43.2222 488.027 47.1267 488.238 51.0612H480.402H480.418Z" fill="#48494A"/>
<path d="M503.514 38.2592C503.514 30.1223 509.549 24.5337 517.789 24.5337C520.729 24.5337 522.996 25.1 524.122 25.6661C525.202 26.1729 525.457 26.8436 525.516 27.7081L525.982 35.0849C524.751 32.9388 522.11 31.4039 518.402 31.4039C513.87 31.4039 511.033 34.3696 511.033 38.2592C511.033 42.5068 514.081 45.1148 518.402 45.1148C523.04 45.1148 525.668 42.76 527.018 40.3009L526.552 47.8718C526.493 49.0044 526.237 49.4515 525.622 49.9732C524.032 51.195 521.195 51.9701 517.637 51.9701C509.384 51.9701 503.514 46.7989 503.514 38.2443V38.2592Z" fill="#48494A"/>
<path d="M556.613 39.8541H537.853C538.528 43.6992 541.921 45.3384 545.838 45.3384C550.581 45.3384 553.418 43.4905 555.067 41.2401L554.348 48.0508C554.302 48.8256 554.031 49.5411 553.312 50.0476C552.171 50.8227 549.86 51.9999 545.222 51.9999C535.016 51.9999 530.169 45.4427 530.169 38.1252C530.169 29.4815 536.052 24.5635 543.887 24.5635C552.756 24.5635 556.613 31.3145 556.613 37.6632V39.869V39.8541ZM548.93 34.8913C548.615 32.8496 546.874 30.9569 543.722 30.9569C540.375 30.9569 538.515 32.8496 538.005 34.8913H548.93Z" fill="#48494A"/>
<path d="M578.058 50.4037C578.372 44.5615 578.522 37.9595 578.522 32.4901C578.522 27.0208 578.372 20.4038 578.058 14.5766H594.041C600.84 14.5766 606.153 18.0042 606.153 25.4261C606.153 32.3858 601.095 36.2309 594.041 36.2309H586.205C586.267 42.7285 586.417 45.6496 586.628 50.4037H578.071H578.058ZM593.425 28.8986C595.947 28.8986 598.063 28.0342 598.063 25.4112C598.063 22.7882 595.947 21.8792 593.425 21.8792H586.417C586.205 24.338 586.205 26.4841 586.205 28.8986H593.425Z" fill="#48494A"/>
<path d="M607.488 43.3842C607.488 38.0043 611.466 34.9938 617.483 34.9938C622.27 34.949 623.878 34.4275 623.878 32.7434C623.878 31.4618 622.587 30.3886 619.284 30.3886C615.323 30.3886 611.345 32.1325 608.465 36.4246L609.078 29.0475C609.23 27.6616 609.799 27.0058 610.474 26.4841C612.17 25.1576 615.171 23.876 619.856 23.876C626.818 23.876 631.605 27.408 631.605 34.8745C631.605 37.5423 631.456 40.2544 631.456 41.8342C631.456 44.3976 631.456 47.1546 631.605 50.3887H623.981L624.236 46.0817C623.666 48.5405 621.355 51.2977 616.552 51.2977C611.345 51.2977 607.473 48.3321 607.473 43.3693L607.488 43.3842ZM624.298 37.8105C623.321 39.9566 621.206 40.7314 618.263 40.7314C616.207 40.7314 614.963 41.5958 614.963 43.0413C614.963 44.487 616.192 45.2917 618.158 45.2917C621.822 45.2917 624.342 43.1456 624.298 37.8105Z" fill="#48494A"/>
<path d="M635.539 50.4034C635.689 46.7224 635.794 42.6241 635.794 37.6018C635.794 32.5795 635.689 28.4958 635.539 24.8H643.372L643.058 29.8223C643.929 26.499 646.508 23.8909 650.53 23.8909C653.112 23.8909 654.449 24.666 655.168 25.2174C655.634 25.6196 656.098 26.037 656.144 26.961L656.549 36.171C655.41 33.414 652.993 31.4169 649.481 31.4169C645.969 31.4169 643.913 33.414 643.042 36.171V37.8102C643.042 42.5643 643.148 46.4689 643.357 50.4034H635.524H635.539Z" fill="#48494A"/>
<path d="M663.632 39.5542L663.784 31.5213H659.46V24.815H663.784C663.738 20.9702 663.678 18.064 663.529 14.5766H671.511C671.303 18.064 671.256 20.9702 671.256 24.815H681.104V31.5213H671.256V38.7941C671.256 42.3261 673.119 44.0699 676.36 44.0699C679.303 44.0699 681.313 42.5348 682.544 39.4052L682.078 47.6465C682.034 48.9283 681.673 49.4349 680.787 50.0012C679.707 50.7165 678.056 51.3277 674.858 51.3277C668.466 51.3277 663.423 47.6465 663.619 39.5542H663.632Z" fill="#48494A"/>
<path d="M685.845 50.4034C685.994 46.7671 686.1 42.5646 686.1 37.6018C686.1 32.639 685.994 28.4961 685.845 24.8H693.575L693.32 29.6139C694.085 26.5438 696.561 23.876 701.364 23.876C706.826 23.876 710.534 27.3635 710.534 34.0101V37.5869C710.534 42.5497 710.639 46.7524 710.789 50.3887H703C703.209 46.7524 703.255 42.7136 703.255 37.7508V36.0072C703.255 32.9372 701.663 30.6868 698.468 30.6868C695.69 30.6868 693.979 32.5795 693.363 35.0832V37.3336C693.363 42.2961 693.41 46.7524 693.618 50.3887H685.829L685.845 50.4034Z" fill="#48494A"/>
<path d="M740.384 39.1965H721.623C722.301 43.0413 725.692 44.6808 729.608 44.6808C734.352 44.6808 737.189 42.8329 738.838 40.5825L738.119 47.3932C738.072 48.168 737.805 48.8835 737.083 49.3901C735.942 50.1651 733.63 51.3423 728.993 51.3423C718.789 51.3423 713.94 44.7852 713.94 37.4676C713.94 28.8239 719.822 23.9059 727.658 23.9059C736.527 23.9059 740.384 30.6569 740.384 37.0056V39.2115V39.1965ZM732.716 34.2337C732.401 32.192 730.66 30.2993 727.508 30.2993C724.161 30.2993 722.301 32.192 721.788 34.2337H732.716Z" fill="#48494A"/>
<path d="M743.385 50.4034C743.537 46.7224 743.641 42.6241 743.641 37.6018C743.641 32.5795 743.537 28.4958 743.385 24.8H751.221L750.907 29.8223C751.775 26.499 754.357 23.8909 758.379 23.8909C760.96 23.8909 762.298 24.666 763.017 25.2174C763.483 25.6196 763.947 26.037 763.993 26.961L764.398 36.171C763.256 33.414 760.842 31.4169 757.33 31.4169C753.818 31.4169 751.762 33.414 750.891 36.171V37.8102C750.891 42.5643 750.997 46.4689 751.205 50.4034H743.373H743.385Z" fill="#48494A"/>
<path d="M768.855 49.1666C768.075 48.7044 767.564 48.1383 767.521 46.9608L767.114 39.1815C769.381 43.1755 773.612 44.9639 777.68 44.9639C780.878 44.9639 781.597 44.0995 781.597 43.0117C781.597 41.8341 780.816 41.2232 778.76 40.8058L774.019 39.8373C769.785 38.9133 766.799 36.2009 766.799 31.8491C766.799 25.9626 772.156 23.8611 777.26 23.8611C781.432 23.8611 783.864 24.7255 785.559 25.6047C786.536 26.0667 786.85 26.7822 786.894 27.7061L787.301 34.9191C785.544 32.2515 781.942 30.2098 777.304 30.2098C774.977 30.2098 773.957 30.8805 773.957 31.9534C773.957 32.9222 774.828 33.4437 776.374 33.8014L781.478 34.8745C785.858 35.8433 788.741 38.3022 788.741 42.6986C788.741 48.3321 784.719 51.2977 778.025 51.2977C774.212 51.2977 771.167 50.5227 768.855 49.1517V49.1666Z" fill="#48494A"/>
</svg>
