<svg width="235" height="33" viewBox="0 0 235 33" fill="none" xmlns="http://www.w3.org/2000/svg">
<g id="4agc 1" clip-path="url(#clip0_35_339)">
<path id="Vector" d="M33.3438 17.6198C32.6747 17.6198 32.1171 17.0622 32.1171 16.3931V3.79156C32.1171 1.72849 30.4443 0.0557251 28.3813 0.0557251H21.0211C18.9579 0.0557251 17.341 1.72849 17.341 3.79156V16.2815C17.341 16.9506 16.8949 17.5082 16.2257 17.564C15.501 17.6198 14.8876 17.0622 14.8876 16.3373V3.79156C14.8876 1.72849 13.2148 0.0557251 11.2075 0.0557251H3.73584C1.67276 0.111484 0 1.78425 0 3.79156V21.0768C0 23.1398 1.67276 24.8126 3.73584 24.8126H13.6052C15.6682 24.8126 17.2853 26.4854 17.2853 28.5485C17.2853 30.6115 18.9579 32.2843 20.9654 32.2843H28.437C30.5 32.2843 32.1728 30.6115 32.1728 28.5485V26.0951C32.1728 25.4259 32.7304 24.8684 33.3995 24.8684C34.0686 24.8684 34.6262 24.3108 34.6262 23.6417V18.9022C34.5704 18.1773 34.0128 17.6198 33.3438 17.6198Z" fill="#00D35A"/>
<path id="Vector_2" d="M51.9114 24.7571C51.7998 24.2552 51.5767 23.3073 51.521 22.0249C50.4616 23.8092 48.4543 25.2032 45.6106 25.2032C42.2092 25.2032 39.8117 23.14 39.8117 19.8503C39.8117 16.2818 42.2651 14.5532 46.4469 14.4974L51.3537 14.4416V13.9398C51.3537 11.3192 49.9039 10.204 47.7294 10.204C45.1645 10.204 44.1051 11.5422 43.9378 12.7132H39.9231C40.2578 9.8137 43.0457 7.02576 47.7852 7.02576C52.8034 7.02576 55.0895 10.0367 55.0895 14.0514V20.3521C55.1454 22.0249 55.3683 23.8092 55.7587 24.8128L51.9114 24.7571ZM51.298 17.3411L46.6142 17.3969C44.8299 17.4526 43.6033 18.066 43.6033 19.6272C43.6033 21.1884 44.8299 22.0249 46.6142 22.0249C48.7331 22.0249 50.6288 20.9097 51.298 19.0697V17.3411Z" fill="#00563B"/>
<path id="Vector_3" d="M71.4827 11.8767H80.9618V24.7569H77.7278L77.5605 20.4077C75.8319 23.6418 72.821 25.203 69.1966 25.203C62.5613 25.203 57.8218 20.0732 57.8218 12.8803C57.8218 5.40863 62.7286 -0.0557251 70.4233 -0.0557251C74.884 -0.0557251 78.7872 2.00735 80.9618 5.68743L77.4489 7.91778C75.8877 5.52015 74.0477 3.68011 70.3119 3.68011C65.1263 3.68011 62.1711 7.19292 62.1711 12.6015C62.1711 17.7871 65.0706 21.4672 70.0888 21.4672C73.6573 21.4672 76.5011 19.5713 77.2817 15.501H71.5386L71.4827 11.8767Z" fill="#00563B"/>
<path id="Vector_4" d="M83.4709 16.1144C83.4709 10.7616 86.8164 6.97003 91.8348 6.97003C96.853 6.97003 100.198 10.7059 100.198 16.1144C100.198 21.4673 96.853 25.1474 91.8348 25.1474C86.8164 25.1474 83.4709 21.4673 83.4709 16.1144ZM96.1839 16.1144C96.1839 12.4902 94.567 10.3156 91.8348 10.3156C89.1026 10.3156 87.4855 12.4902 87.4855 16.1144C87.4855 19.7388 89.1026 21.8576 91.8348 21.8576C94.567 21.8576 96.1839 19.7388 96.1839 16.1144Z" fill="#00563B"/>
<path id="Vector_5" d="M101.983 16.1144C101.983 10.7616 105.328 6.97003 110.347 6.97003C115.365 6.97003 118.71 10.7059 118.71 16.1144C118.71 21.4673 115.365 25.1474 110.347 25.1474C105.328 25.1474 101.983 21.4673 101.983 16.1144ZM114.696 16.1144C114.696 12.4902 113.079 10.3156 110.347 10.3156C107.614 10.3156 105.997 12.4902 105.997 16.1144C105.997 19.7388 107.614 21.8576 110.347 21.8576C113.079 21.8576 114.696 19.7388 114.696 16.1144Z" fill="#00563B"/>
<path id="Vector_6" d="M132.873 0.501953H136.832V24.7571H132.929V21.1327C131.479 23.6418 129.36 25.0916 126.963 25.0916C122.892 25.0916 120.55 21.3557 120.55 16.0029C120.55 10.7058 122.892 6.96997 126.907 6.96997C129.137 6.96997 131.367 8.30819 132.817 10.7616L132.873 0.501953ZM132.984 16.0587C132.984 12.5459 129.974 10.427 128.078 10.427C125.959 10.427 124.621 12.3228 124.621 16.0587C124.621 19.8503 126.07 21.746 128.189 21.746C130.141 21.6903 132.984 19.5715 132.984 16.0587Z" fill="#00563B"/>
<path id="Vector_7" d="M140.01 12.6015C140.01 5.24132 144.749 0 151.887 0C156.905 0 160.975 3.06674 162.369 7.30441L158.299 8.58685C157.575 6.13346 155.567 3.7916 151.831 3.7916C147.203 3.7916 144.303 7.24864 144.303 12.5457C144.303 17.7314 146.98 21.4672 151.831 21.4672C155.288 21.4672 157.575 19.404 158.41 16.4488L162.314 17.6755C161.031 21.969 156.961 25.2587 151.775 25.2587C144.638 25.203 140.01 20.1846 140.01 12.6015Z" fill="#00563B"/>
<path id="Vector_8" d="M176.086 24.7571C175.975 24.2553 175.752 23.3073 175.695 22.0249C174.636 23.8092 172.63 25.2032 169.785 25.2032C166.384 25.2032 163.987 23.14 163.987 19.8503C163.987 16.2818 166.44 14.5532 170.622 14.4974L175.529 14.4416V13.9398C175.529 11.3192 174.135 10.204 171.904 10.204C169.34 10.204 168.28 11.5422 168.112 12.7132H164.153C164.488 9.8137 167.276 7.02576 171.96 7.02576C176.978 7.02576 179.265 10.0367 179.265 14.0514V20.3521C179.32 22.0249 179.543 23.8092 179.933 24.8128L176.086 24.7571ZM175.472 17.3411L170.789 17.3969C169.005 17.4526 167.778 18.066 167.778 19.6272C167.778 21.1884 169.005 22.0249 170.789 22.0249C172.964 22.0249 174.804 20.9097 175.472 19.0697V17.3411Z" fill="#00563B"/>
<path id="Vector_9" d="M194.542 7.36017H198.501V24.7012H194.597V21.3556C193.26 23.4186 191.196 25.0914 188.688 25.0914C185.063 25.0914 183.001 22.5823 183.001 18.2889V7.36017H186.959V17.0622C186.959 20.2405 187.907 21.5787 190.025 21.5787C192.256 21.5787 194.542 19.5156 194.542 15.947V7.36017Z" fill="#00563B"/>
<path id="Vector_10" d="M201.066 19.46H204.97C205.193 21.1327 206.864 22.0249 208.983 22.0249C211.103 22.0249 212.217 21.1327 212.217 19.906C212.217 19.0697 211.716 18.4005 209.764 17.9544L206.698 17.3411C203.519 16.672 201.791 14.9993 201.791 12.4344C201.791 9.25611 204.579 7.02576 208.706 7.02576C212.831 7.02576 215.507 9.20035 215.953 12.4344H212.051C211.883 11.0404 210.712 10.0367 208.649 10.0367C206.698 10.0367 205.638 10.9289 205.638 12.0998C205.638 13.0477 206.252 13.7168 207.98 13.9955L211.214 14.609C214.504 15.2222 216.177 17.1181 216.177 19.6272C216.177 22.8612 213.444 25.2032 208.983 25.2032C204.3 25.1473 201.4 22.694 201.066 19.46Z" fill="#00563B"/>
<path id="Vector_11" d="M234.243 16.5605H221.808C222.031 19.906 223.76 21.9134 226.492 21.9134C228.444 21.9134 229.782 20.9655 230.284 19.4042H234.186C233.517 22.6383 230.841 25.1474 226.437 25.1474C221.25 25.1474 217.849 21.5231 217.849 16.1144C217.849 10.7059 221.25 6.97003 226.269 6.97003C231.176 6.97003 234.298 10.4271 234.298 15.6126C234.243 15.7799 234.243 16.0587 234.243 16.5605ZM222.087 13.5496H230.116C229.893 11.375 228.388 10.1483 226.269 10.1483C224.15 10.1483 222.478 11.5422 222.087 13.5496Z" fill="#00563B"/>
</g>
<defs>
<clipPath id="clip0_35_339">
<rect width="235" height="32.2286" fill="white"/>
</clipPath>
</defs>
</svg>
