<svg width="377" height="55" viewBox="0 0 377 55" fill="none" xmlns="http://www.w3.org/2000/svg">
<path d="M0 0.602722V54.3973H15.2192V46.637H7.60959V8.28766H15.2192V0.602722H0Z" fill="#07C98F"/>
<path d="M38.3494 0.602722V8.28765H45.959V31.3424H38.3494V39.0274H53.7192V0.602722H38.3494Z" fill="#07C98F"/>
<path d="M356.189 35.0188C359.208 37.6627 362.946 38.8378 366.54 38.8378C371.572 38.8378 376.459 35.9001 376.459 30.7591C376.459 21.6522 364.096 22.8272 364.096 19.5957C364.096 18.2738 365.677 17.6862 367.546 17.6862C369.415 17.6862 371.14 18.4207 372.434 19.302L375.453 14.6016C373.584 12.9859 370.278 11.8108 366.971 11.8108C361.94 11.8108 357.195 14.8954 357.195 19.8895C357.195 28.262 369.559 26.7932 369.559 30.7591C369.559 32.0811 368.121 32.9624 366.252 32.9624C363.665 32.9624 361.077 31.9342 359.352 30.6122L356.189 35.0188Z" fill="#1F1F24"/>
<path d="M338.727 51L356.189 11.8108H348.973L341.757 28.4319L333.82 11.8108H326.459L338.294 36.2087L331.655 51H338.727Z" fill="#1F1F24"/>
<path d="M315.503 12.3983V14.6016C313.202 12.839 310.287 11.8108 307.219 11.8108C299.856 11.8108 294.027 17.3925 294.027 25.3243C294.027 33.2561 300.009 38.8378 307.373 38.8378C310.747 38.8378 313.508 37.6627 315.656 36.047V38.2503H322.405V12.3983H315.503ZM301.237 25.4712C301.237 21.3584 304.458 18.2738 308.293 18.2738C310.901 18.2738 313.202 19.302 314.889 21.3584V29.7309C313.355 31.6404 311.054 32.8155 308.293 32.8155C304.611 32.6686 301.237 29.7309 301.237 25.4712Z" fill="#1F1F24"/>
<path d="M274.207 17.0026V7.28138H280.213C283.366 7.28138 284.718 7.87961 285.468 8.9265C286.219 9.82384 286.67 10.8707 286.67 12.0672C286.67 13.2636 286.219 14.4601 285.468 15.2079C284.568 16.2548 283.216 16.853 280.213 16.853H274.207V17.0026ZM281.114 23.4335C286.369 23.4335 289.673 21.6388 291.775 18.9468C293.276 17.0026 294.027 14.6097 294.027 12.2167C294.027 9.67429 293.276 7.43094 291.775 5.4867C289.673 2.79468 286.52 1 281.114 1H267V38.8378H274.357V23.4335H281.114Z" fill="#1F1F24"/>
<path d="M250.784 11.9618C250.053 11.8108 249.469 11.8108 248.739 11.8108C245.524 11.8108 242.749 12.8677 241.288 14.8306V12.1128H234.568V38.8378H241.434V22.078C243.041 19.3602 245.817 18.3033 248.3 18.3033C249.323 18.3033 250.053 18.3033 250.638 18.4543V11.9618H250.784Z" fill="#1F1F24"/>
<path d="M221.237 12.3983V14.6016C219.045 12.839 216.27 11.8108 213.348 11.8108C206.335 11.8108 200.784 17.3925 200.784 25.3243C200.784 33.2561 206.481 38.8378 213.494 38.8378C216.708 38.8378 219.337 37.6627 221.383 36.047V38.2503H227.811V12.3983H221.237ZM207.65 25.4712C207.65 21.3584 210.718 18.2738 214.37 18.2738C216.854 18.2738 219.045 19.302 220.652 21.3584V29.7309C219.191 31.6404 217 32.8155 214.37 32.8155C210.718 32.6686 207.65 29.7309 207.65 25.4712Z" fill="#1F1F24"/>
<path d="M195.378 1H188.622V38.8378H195.378V1Z" fill="#1F1F24"/>
<path d="M175.674 11.8108V29.0781C174.574 30.2793 172.374 32.3814 169.231 32.3814C167.817 32.3814 166.246 31.9309 164.989 30.7297C164.203 29.8288 163.574 28.6276 163.574 26.2252V11.8108H156.189V25.7748C156.189 29.6787 157.132 32.5315 159.018 34.6336C161.06 37.1862 164.517 38.8378 168.288 38.8378C171.274 38.8378 174.102 37.7868 176.302 35.985V38.3874H183.216V11.8108H175.674Z" fill="#1F1F24"/>
<path d="M126.459 12.2612V51H133.021V36.8859C134.733 38.3874 137.158 39.2883 140.011 39.2883C146.715 39.2883 152.135 33.5826 152.135 25.4745C152.135 17.5165 146.857 11.8108 140.153 11.8108C137.3 11.8108 134.733 12.8618 132.593 14.6636V12.4114H126.459V12.2612ZM145.574 25.4745C145.574 29.8288 142.578 32.8318 139.012 32.8318C136.587 32.8318 134.447 31.6306 133.021 29.6787V21.2703C134.59 19.3183 136.73 18.1171 139.012 18.1171C142.578 18.2672 145.574 21.2703 145.574 25.4745Z" fill="#1F1F24"/>
<path d="M100.931 25.3243C100.931 21.3584 103.575 18.1269 107.541 18.1269C111.506 18.1269 114.15 21.5053 114.15 25.3243C114.15 29.2902 111.506 32.5217 107.541 32.5217C103.575 32.5217 100.931 29.2902 100.931 25.3243ZM94.027 25.3243C94.027 32.8155 99.7556 38.8378 107.541 38.8378C115.326 38.8378 121.054 32.8155 121.054 25.3243C121.054 17.8331 115.326 11.8108 107.541 11.8108C99.9025 11.8108 94.027 17.8331 94.027 25.3243Z" fill="#1F1F24"/>
<path d="M73.8469 17.0026V7.28138H79.5526C82.5481 7.28138 83.8318 7.87961 84.545 8.9265C85.2583 9.82384 85.6862 10.8707 85.6862 12.0672C85.6862 13.2636 85.2583 14.4601 84.545 15.2079C83.6892 16.2548 82.4054 16.853 79.5526 16.853H73.8469V17.0026ZM80.4084 23.4335C85.4009 23.4335 88.539 21.6388 90.536 18.9468C91.9625 17.0026 92.6757 14.6097 92.6757 12.2167C92.6757 9.67429 91.9625 7.43094 90.536 5.4867C88.539 2.79468 85.5435 1 80.4084 1H67V38.8378H73.9895V23.4335H80.4084Z" fill="#1F1F24"/>
</svg>
